<svg width="40" height="40" viewBox="0 0 40 40" fill="none" xmlns="http://www.w3.org/2000/svg">
<path d="M30.7756 7.23549H28.1972V7.23549C27.5367 7.23549 26.9011 7.62818 26.2406 7.62822L25.8329 7.62824C24.2454 7.62833 22.9086 6.31746 21.4946 5.59559C21.0486 5.36788 20.5407 5.23926 19.9993 5.23926C19.4265 5.23926 18.8912 5.38322 18.4271 5.63615C17.0781 6.37125 15.789 7.62839 14.2527 7.62839H13.7639C13.1046 7.62839 12.4607 7.23572 11.8014 7.23572V7.23572H9.22302C8.52872 7.23572 8 7.79207 8 8.44662C8 9.13403 8.56193 9.65752 9.22302 9.65752H11.8014V9.65752C12.462 9.65752 13.0975 9.26484 13.7581 9.26484H16.3892C16.6664 9.26484 16.9082 9.46725 17.0178 9.72188V9.72188C17.1968 10.1375 17.0082 10.6742 16.599 10.8674C14.925 11.6576 13.7517 13.3746 13.7517 15.3524V25.9237C13.7517 26.9711 14.6111 27.8546 15.6689 27.8546V27.8546C16.5818 27.8546 17.3218 27.1147 17.3218 26.2018V25.8908C17.3218 24.4507 18.5118 23.2398 19.9993 23.2398C21.4538 23.2398 22.6768 24.4181 22.6768 25.8908V26.2018C22.6768 27.1147 23.4168 27.8546 24.3296 27.8546V27.8546C25.3875 27.8546 26.2469 27.0038 26.2469 25.9237V15.3524C26.2469 13.3718 25.0702 11.6529 23.3721 10.8641C22.9723 10.6784 22.8037 10.1313 22.9692 9.72264V9.72264C23.0725 9.4676 23.3044 9.26484 23.5796 9.26484H26.2347C26.894 9.26484 27.5379 9.65752 28.1972 9.65752V9.65752H30.7756C31.4699 9.65752 31.9986 9.10116 31.9986 8.44662C32.0318 7.7592 31.4699 7.23549 30.7756 7.23549ZM19.9993 19.2796C19.0408 19.2796 18.2803 18.5269 18.2803 17.5777C18.2803 16.6287 19.0405 15.8757 19.9993 15.8757C20.9578 15.8757 21.7183 16.6284 21.7183 17.5777C21.7183 18.4941 20.9578 19.2796 19.9993 19.2796ZM22.0819 9.26466C21.8836 9.7555 21.5529 10.1484 21.0901 10.3774C20.7595 10.5411 20.3958 10.6392 20.0322 10.6392C19.6686 10.6392 19.272 10.5411 18.9743 10.3774C18.5115 10.1155 18.1479 9.72286 17.9825 9.26466C17.8834 9.0028 17.8172 8.74095 17.8172 8.44645C17.8172 8.15194 17.8834 7.89009 17.9825 7.62823C18.3132 6.81002 19.1064 6.22102 20.0651 6.22102C21.0237 6.22102 21.8171 6.81002 22.1478 7.62823V7.62823C22.3452 8.14966 22.2812 8.73196 22.0858 9.25417C22.0845 9.25768 22.0832 9.26117 22.0819 9.26466Z" fill="#0691FC"/>
<path d="M19.9999 27.8858C19.1748 27.8858 18.4721 28.5764 18.4721 29.4555V33.1914C18.4721 34.0391 19.1443 34.7611 19.9999 34.7611C20.825 34.7611 21.5278 34.0704 21.5278 33.1914V29.4555C21.5278 29.016 21.3444 28.6393 21.0695 28.3566C20.7943 28.0741 20.4277 27.8858 19.9999 27.8858Z" fill="#0691FC"/>
</svg>
