<svg width="40" height="40" viewBox="0 0 40 40" fill="none" xmlns="http://www.w3.org/2000/svg">
<path d="M33 20.914C33 20.914 33 20.914 33 20.9141V23.6637V23.6637C32.9948 25.3462 32.1343 26.9874 32.1343 28.6699V29.1631C32.1343 29.6495 31.9515 30.1159 31.6263 30.4599C31.3012 30.8038 30.8599 30.997 30.4 30.997H28.6659C28.2059 30.997 27.7646 30.8037 27.4395 30.4599C27.1143 30.1159 26.9316 29.6495 26.9316 29.1631V29.1631C26.9316 28.1517 26.1117 27.3318 25.1003 27.3318H14.8998C13.8869 27.3318 13.0657 28.1529 13.0657 29.1659V29.1659C13.0657 29.6523 12.883 30.1187 12.5577 30.4628C12.2324 30.8068 11.7914 31 11.3314 31H9.6C9.14003 31 8.69879 30.8068 8.37369 30.4628C8.0484 30.1188 7.86569 29.6523 7.86569 29.1659V28.6755C7.86569 26.9912 7.00404 25.348 7 23.6637V23.6637V20.914C7.00135 20.1717 7.2159 19.4474 7.61567 18.8373C7.6923 18.7202 7.77504 18.6085 7.86336 18.5024C8.5646 17.6601 9.4585 16.9138 9.84621 15.8887V15.8887L10.9249 13.0338C11.3718 11.8405 12.1485 10.8172 13.1536 10.0976C14.1586 9.37817 15.3453 8.99555 16.5591 9.00004H23.4409C24.654 8.99616 25.8402 9.37894 26.8447 10.0986C27.8493 10.818 28.6255 11.8409 29.0724 13.0337L30.1511 15.8886V15.8886C30.5387 16.9136 31.433 17.6594 32.1351 18.5007C32.2237 18.607 32.3068 18.719 32.3837 18.8362C32.7839 19.4465 32.9988 20.1713 33 20.9139C33 20.914 33 20.914 33 20.914V20.914ZM13.9341 22.7394C13.9341 21.6424 12.374 19.9985 11.3341 19.9985C10.8668 19.9674 10.4093 20.1498 10.0777 20.4994C9.74601 20.8491 9.57199 21.3323 9.59995 21.8267C9.57197 22.321 9.746 22.8042 10.0777 23.1539C10.4093 23.5035 10.8668 23.6859 11.3341 23.6549C12.3742 23.652 13.9341 23.8363 13.9341 22.7394ZM14.1443 14.3941C13.623 15.7739 14.6426 17.249 16.1176 17.249H23.8821C25.3571 17.249 26.3766 15.7738 25.8553 14.394V14.394C25.662 13.8839 25.3288 13.4467 24.8985 13.1386C24.4681 12.8305 23.9605 12.6656 23.4407 12.6654H16.5589C16.0391 12.6652 15.5313 12.8299 15.1008 13.138C14.6704 13.4463 14.3372 13.8837 14.1443 14.3941V14.3941ZM30.3998 21.8269C30.3999 21.8269 30.3999 21.8269 30.3999 21.8268C30.4278 21.3325 30.2538 20.8493 29.9221 20.4996C29.5905 20.1501 29.133 19.9676 28.6657 19.9987C27.6258 19.9987 26.0657 21.6427 26.0657 22.7396C26.0657 23.8365 27.6258 23.6523 28.6657 23.6523C29.1324 23.6831 29.5895 23.5011 29.9212 23.1522C30.2526 22.8033 30.4268 22.3207 30.3998 21.827C30.3998 21.8269 30.3998 21.8269 30.3998 21.8269V21.8269Z" fill="#0691FC"/>
</svg>
