<svg width="40" height="40" viewBox="0 0 40 40" fill="none" xmlns="http://www.w3.org/2000/svg">
<path d="M10.5412 18.3666C10.5412 16.6362 11.9489 15.2285 13.6793 15.2285H29.1171L26.8941 10.1628C26.4253 9.09448 25.1739 8.60701 24.107 9.07579L9.08969 15.6659C8.57435 15.8921 8.1771 16.3076 7.97156 16.8346C7.76553 17.3627 7.77674 17.937 8.00349 18.4523L10.5409 24.2371L10.5412 18.3666Z" fill="#0691FC"/>
<path d="M30.041 16.2328H13.6788C12.5024 16.2328 11.5451 17.1901 11.5451 18.3665V28.9691C11.5451 30.1455 12.5024 31.1027 13.6788 31.1027H30.041C31.2179 31.1032 32.1752 30.1459 32.1752 28.9695V18.3661C32.1752 17.1897 31.2179 16.2324 30.041 16.2324V16.2328ZM19.6241 19.0031H22.4369C22.7145 19.0031 22.9387 19.2278 22.9387 19.5053C22.9387 19.7829 22.7145 20.0076 22.4369 20.0076H19.6241C19.3465 20.0076 19.1218 19.7829 19.1218 19.5053C19.1218 19.2278 19.3465 19.0031 19.6241 19.0031ZM14.1549 19.0031H16.9678C17.2453 19.0031 17.4695 19.2278 17.4695 19.5053C17.4695 19.7829 17.2453 20.0076 16.9678 20.0076H14.1549C13.8774 20.0076 13.6532 19.7829 13.6532 19.5053C13.6532 19.2278 13.8774 19.0031 14.1549 19.0031ZM13.5482 22.9428C13.5482 22.6657 13.7724 22.441 14.0499 22.441H27.0714C27.349 22.441 27.5732 22.6657 27.5732 22.9428C27.5732 23.2198 27.349 23.4445 27.0714 23.4445L14.0504 23.4443C13.773 23.4443 13.5483 23.2196 13.5483 22.9428L13.5482 22.9428ZM29.6534 29.3511H26.8406C26.563 29.3511 26.3383 29.1264 26.3383 28.8494C26.3383 28.5718 26.563 28.3471 26.8406 28.3471H29.6534C29.931 28.3471 30.1552 28.5718 30.1552 28.8494C30.1557 29.1259 29.931 29.3511 29.6534 29.3511Z" fill="#0691FC"/>
</svg>
