<svg width="63" height="30" viewBox="0 0 63 30" fill="none" xmlns="http://www.w3.org/2000/svg">
<rect y="0.263672" width="63" height="29" rx="14.5" fill="#52CE6E"/>
<path d="M17.6008 19.2637H19.5608V15.1337H22.6828V13.5797H19.5608V11.0737H23.6348V9.49167H17.6008V19.2637ZM26.9846 15.3997C26.9846 13.9017 27.6846 13.4537 28.8466 13.4537H29.3646V11.3957C28.2866 11.3957 27.4746 11.9137 26.9846 12.7117V11.5077H25.0246V19.2637H26.9846V15.3997ZM34.0168 12.9917C35.0248 12.9917 35.8368 13.6357 35.8648 14.6577H32.1828C32.3368 13.5937 33.0788 12.9917 34.0168 12.9917ZM37.6988 16.8277H35.5848C35.3328 17.3457 34.8708 17.7657 34.0308 17.7657C33.0508 17.7657 32.2668 17.1217 32.1688 15.9737H37.8388C37.8808 15.7217 37.8948 15.4697 37.8948 15.2177C37.8948 12.9077 36.3128 11.3817 34.0728 11.3817C31.7767 11.3817 30.1807 12.9357 30.1807 15.3857C30.1807 17.8217 31.8188 19.3897 34.0728 19.3897C35.9908 19.3897 37.2788 18.2557 37.6988 16.8277ZM42.6574 12.9917C43.6654 12.9917 44.4774 13.6357 44.5054 14.6577H40.8234C40.9774 13.5937 41.7194 12.9917 42.6574 12.9917ZM46.3394 16.8277H44.2254C43.9734 17.3457 43.5114 17.7657 42.6714 17.7657C41.6914 17.7657 40.9074 17.1217 40.8094 15.9737H46.4794C46.5214 15.7217 46.5354 15.4697 46.5354 15.2177C46.5354 12.9077 44.9534 11.3817 42.7134 11.3817C40.4174 11.3817 38.8214 12.9357 38.8214 15.3857C38.8214 17.8217 40.4594 19.3897 42.7134 19.3897C44.6314 19.3897 45.9194 18.2557 46.3394 16.8277Z" fill="white"/>
</svg>
