<svg width="40" height="40" viewBox="0 0 40 40" fill="none" xmlns="http://www.w3.org/2000/svg">
<path d="M15.6011 9.00018C16.3361 9.02207 17.0481 9.14634 17.7382 9.37319C17.7568 9.37929 17.7762 9.38246 17.7957 9.38246C17.8222 9.38246 17.8487 9.3878 17.8718 9.40076C17.8786 9.40457 17.8851 9.4084 17.8912 9.41224C17.927 9.43465 17.9633 9.45726 18.0035 9.47028C18.2424 9.5477 18.4694 9.63558 18.6874 9.75297L19.1367 9.94981C19.3141 10.0424 19.5269 10.215 19.6452 10.2856C19.8592 10.4092 20.1348 10.4008 20.3405 10.2638C21.5849 9.43486 23.0484 8.98975 24.5524 9.00018C25.2985 9.00018 26.0435 9.10341 26.7518 9.33614C31.1163 10.7256 32.689 15.4149 31.3753 19.5137C30.6303 21.6083 29.4124 23.5199 27.8172 25.0819C25.5339 27.2471 23.0282 29.1691 20.331 30.8248C20.149 30.9325 19.9225 30.9312 19.7417 30.8216L19.7279 30.8133C17.0213 29.1691 14.5014 27.2471 12.1968 25.0703C10.6123 23.5083 9.39313 21.6083 8.63635 19.5137C7.30016 15.4149 8.87285 10.7256 13.2846 9.31183C13.6276 9.19604 13.9811 9.11499 14.3359 9.06984C14.4303 9.06984 14.5246 9.06264 14.6184 9.05122C14.9033 9.01654 15.1867 9.00018 15.471 9.00018H15.6011Z" fill="#0691FC"/>
<path d="M24.0056 19.9941L15.9837 19.9941" stroke="white" stroke-width="2" stroke-linecap="round"/>
<path d="M19.9948 24.0049L19.9948 15.983" stroke="white" stroke-width="2" stroke-linecap="round"/>
</svg>
