<svg width="26" height="22" viewBox="0 0 26 22" fill="none" xmlns="http://www.w3.org/2000/svg">
<path d="M10.9814 0C11.2505 0.823969 11.3851 1.51061 11.3851 2.05993C11.3851 2.55431 11.3043 3.21349 11.1429 4.03745C7.53623 4.03745 5.73292 5.93259 5.73292 9.72285C5.73292 11.0961 6.43271 11.8652 7.8323 12.03C9.87785 12.1948 10.9006 13.5406 10.9006 16.0674C10.9006 17.99 10.4431 19.4732 9.52795 20.5169C8.66667 21.5056 7.07867 22 4.76398 22C1.58799 22 0 19.8027 0 15.4082C0 11.0137 0.861284 7.3608 2.58385 4.44944C4.30642 1.48315 7.10559 0 10.9814 0ZM25.5963 0C25.8654 0.823969 26 1.51061 26 2.05993C26 2.55431 25.9193 3.21349 25.7578 4.03745C22.1511 4.03745 20.3478 5.93259 20.3478 9.72285C20.3478 11.0961 21.0476 11.8652 22.4472 12.03C24.4928 12.1948 25.5155 13.5406 25.5155 16.0674C25.5155 17.99 25.058 19.4732 24.1429 20.5169C23.2816 21.5056 21.6936 22 19.3789 22C16.2029 22 14.6149 19.8027 14.6149 15.4082C14.6149 11.0137 15.4762 7.3608 17.1988 4.44944C18.9213 1.48315 21.7205 0 25.5963 0Z" fill="url(#paint0_linear_350_1434)"/>
<defs>
<linearGradient id="paint0_linear_350_1434" x1="12.1405" y1="0" x2="12.1405" y2="22" gradientUnits="userSpaceOnUse">
<stop stop-color="#01DCFA"/>
<stop offset="1" stop-color="#0590FB"/>
</linearGradient>
</defs>
</svg>
