<svg width="40" height="40" viewBox="0 0 40 40" fill="none" xmlns="http://www.w3.org/2000/svg">
<path d="M29.4231 9.83203H10.5769C9.16219 9.83203 8 10.9942 8 12.4089V27.592C8 29.0067 9.16219 30.1689 10.5769 30.1689H29.4231C30.8378 30.1689 32 29.0067 32 27.592L31.9998 12.4089C31.9998 10.994 30.8376 9.83203 29.4229 9.83203H29.4231ZM30.7116 27.6172C30.7116 28.3246 30.1306 28.9056 29.4233 28.9056L10.577 28.9058C9.86965 28.9058 9.28864 28.3248 9.28864 27.6174V27.2889C9.66752 27.5163 10.0972 27.6426 10.577 27.6426H29.4233C29.9033 27.6426 30.3327 27.5163 30.7116 27.2889V27.6172ZM30.7116 25.0405C30.7116 25.7479 30.1306 26.3289 29.4233 26.3289H10.577C9.86965 26.3289 9.28864 25.7479 9.28864 25.0405V24.7121C9.66752 24.9394 10.0972 25.0657 10.577 25.0657H29.4233C29.9033 25.0657 30.3327 24.9394 30.7116 24.7121V25.0405ZM30.7116 22.4889C30.7116 23.1962 30.1306 23.7772 29.4233 23.7772L10.577 23.7774C9.86965 23.7774 9.28864 23.1964 9.28864 22.489L9.28847 12.4091C9.28847 11.7017 9.86947 11.1207 10.5768 11.1207H29.4231C30.1304 11.1207 30.7115 11.7017 30.7115 12.4091L30.7116 22.4889Z" fill="#0691FC"/>
<path d="M29.0189 12.4092H10.9811C10.7538 12.4092 10.5516 12.6113 10.5516 12.8386V22.1102C10.5516 22.3375 10.7538 22.5396 10.9811 22.5396H28.9937C29.221 22.5396 29.4231 22.3375 29.4231 22.1102V12.8134C29.4485 12.586 29.2463 12.4093 29.019 12.4093L29.0189 12.4092ZM15.4526 17.9671H13.0527C12.7748 17.9671 12.5475 17.7397 12.5475 17.4618C12.5475 17.1839 12.7748 16.9566 13.0527 16.9566L15.4526 16.9564C15.7306 16.9564 15.9579 17.1838 15.9579 17.4617C15.9579 17.7397 15.7305 17.9671 15.4526 17.9671ZM22.1474 14.9607C22.1474 15.0365 22.0716 15.1123 21.9958 15.1123H20.96C21.1115 15.3144 21.2127 15.5417 21.2631 15.7944H21.9956C22.0714 15.7944 22.1472 15.8702 22.1472 15.946V16.5775C22.1472 16.6533 22.0714 16.7291 21.9956 16.7291H21.2631C21.0358 17.6638 20.202 18.3459 19.2168 18.3459H19.0905L21.1621 20.4428C21.2127 20.4933 21.2127 20.5437 21.1873 20.6197C21.1621 20.6703 21.1116 20.7207 21.0358 20.7207H20.1011C20.0505 20.7207 20.0253 20.6955 20.0001 20.6701L17.9284 18.5732C17.9032 18.548 17.8779 18.4975 17.8779 18.4723V17.5376C17.8779 17.4618 17.9536 17.386 18.0294 17.386H19.2168C19.6462 17.386 20.0505 17.1333 20.2272 16.7545H18.0294C17.9536 16.7545 17.8778 16.6787 17.8778 16.6029V15.9711C17.8778 15.8954 17.9536 15.8196 18.0294 15.8196H20.2272C20.0503 15.4407 19.6462 15.188 19.2168 15.188H18.0294C17.9536 15.188 17.8779 15.1122 17.8779 15.0365V14.3543C17.8779 14.2785 17.9536 14.2028 18.0294 14.2028H21.9958C22.0716 14.2028 22.1474 14.2785 22.1474 14.3543L22.1474 14.9607ZM26.9473 17.9671H24.5474C24.2695 17.9671 24.0422 17.7397 24.0422 17.4618C24.0422 17.1839 24.2695 16.9566 24.5474 16.9566H26.9473C27.2252 16.9566 27.4526 17.1839 27.4526 17.4618C27.4526 17.7397 27.2252 17.9671 26.9473 17.9671Z" fill="#0691FC"/>
</svg>
