<svg width="16" height="17" viewBox="0 0 16 17" fill="none" xmlns="http://www.w3.org/2000/svg">
<path d="M8 2.4C9.16 2.4 10.1 3.34 10.1 4.5C10.1 5.66 9.16 6.6 8 6.6C6.84 6.6 5.9 5.66 5.9 4.5C5.9 3.34 6.84 2.4 8 2.4ZM8 11.4C10.97 11.4 14.1 12.86 14.1 13.5V14.6H1.9V13.5C1.9 12.86 5.03 11.4 8 11.4ZM8 0.5C5.79 0.5 4 2.29 4 4.5C4 6.71 5.79 8.5 8 8.5C10.21 8.5 12 6.71 12 4.5C12 2.29 10.21 0.5 8 0.5ZM8 9.5C5.33 9.5 0 10.84 0 13.5V16.5H16V13.5C16 10.84 10.67 9.5 8 9.5Z" fill="url(#paint0_linear_2671_10)"/>
<defs>
<linearGradient id="paint0_linear_2671_10" x1="7.47108" y1="0.5" x2="7.47108" y2="16.5" gradientUnits="userSpaceOnUse">
<stop stop-color="#01DCFA"/>
<stop offset="1" stop-color="#0590FB"/>
</linearGradient>
</defs>
</svg>
