<svg width="37" height="39" viewBox="0 0 37 39" fill="none" xmlns="http://www.w3.org/2000/svg">
<path d="M1.98285 10.805C5.48285 8.13832 15.1828 3.80499 25.9828 7.80499C26.8162 11.805 26.9828 21.105 20.9828 26.305" stroke="url(#paint0_linear_350_1605)" stroke-width="2" stroke-linecap="round"/>
<path d="M17.9828 36.3043C13.9234 34.6065 5.03431 28.2735 3.09841 16.9204C6.14585 14.1987 14.1165 9.40438 21.6199 12.0005" stroke="url(#paint1_linear_350_1605)" stroke-width="2" stroke-linecap="round"/>
<path d="M31.7191 9.6635C32.4046 14.0099 31.6136 24.6043 22.9659 32.2108C19.0498 31.0453 10.7855 26.777 9.0572 19.0276" stroke="url(#paint2_linear_350_1605)" stroke-width="2" stroke-linecap="round"/>
<circle cx="13.4828" cy="2.30469" r="2" fill="url(#paint3_linear_350_1605)"/>
<circle cx="34.4828" cy="23.3047" r="2" fill="url(#paint4_linear_350_1605)"/>
<circle cx="4.48285" cy="31.3047" r="2" fill="url(#paint5_linear_350_1605)"/>
<defs>
<linearGradient id="paint0_linear_350_1605" x1="13.3869" y1="6.18359" x2="13.3869" y2="26.305" gradientUnits="userSpaceOnUse">
<stop stop-color="#01DCFA"/>
<stop offset="1" stop-color="#0590FB"/>
</linearGradient>
<linearGradient id="paint1_linear_350_1605" x1="8.08763" y1="28.7255" x2="25.4789" y2="18.6846" gradientUnits="userSpaceOnUse">
<stop stop-color="#01DCFA"/>
<stop offset="1" stop-color="#0590FB"/>
</linearGradient>
<linearGradient id="paint2_linear_350_1605" x1="30.3727" y1="21.8944" x2="12.6633" y2="12.3422" gradientUnits="userSpaceOnUse">
<stop stop-color="#01DCFA"/>
<stop offset="1" stop-color="#0590FB"/>
</linearGradient>
<linearGradient id="paint3_linear_350_1605" x1="13.3506" y1="0.304688" x2="13.3506" y2="4.30469" gradientUnits="userSpaceOnUse">
<stop stop-color="#01DCFA"/>
<stop offset="1" stop-color="#0590FB"/>
</linearGradient>
<linearGradient id="paint4_linear_350_1605" x1="34.3506" y1="21.3047" x2="34.3506" y2="25.3047" gradientUnits="userSpaceOnUse">
<stop stop-color="#01DCFA"/>
<stop offset="1" stop-color="#0590FB"/>
</linearGradient>
<linearGradient id="paint5_linear_350_1605" x1="4.35062" y1="29.3047" x2="4.35062" y2="33.3047" gradientUnits="userSpaceOnUse">
<stop stop-color="#01DCFA"/>
<stop offset="1" stop-color="#0590FB"/>
</linearGradient>
</defs>
</svg>
