<svg width="138" height="59" viewBox="0 0 138 59" fill="none" xmlns="http://www.w3.org/2000/svg">
<path d="M9.98285 20.805C13.4828 18.1383 23.1828 13.805 33.9828 17.805C34.8162 21.805 34.9828 31.105 28.9828 36.305" stroke="url(#paint0_linear_350_1603)" stroke-width="2" stroke-linecap="round"/>
<path d="M25.9828 46.3043C21.9234 44.6065 13.0343 38.2735 11.0984 26.9204C14.1458 24.1987 22.1165 19.4044 29.6199 22.0005" stroke="url(#paint1_linear_350_1603)" stroke-width="2" stroke-linecap="round"/>
<path d="M39.7191 19.6635C40.4046 24.0099 39.6136 34.6043 30.9659 42.2108C27.0498 41.0453 18.7855 36.777 17.0572 29.0276" stroke="url(#paint2_linear_350_1603)" stroke-width="2" stroke-linecap="round"/>
<circle cx="21.4828" cy="12.3047" r="2" fill="url(#paint3_linear_350_1603)"/>
<circle cx="42.4828" cy="33.3047" r="2" fill="url(#paint4_linear_350_1603)"/>
<circle cx="12.4828" cy="41.3047" r="2" fill="url(#paint5_linear_350_1603)"/>
<path d="M55.7344 26.7812V42H52.2188V26.7812H55.7344ZM51.6875 20.4531C51.6875 19.8385 51.9115 19.3073 52.3594 18.8594C52.8073 18.4115 53.3438 18.1875 53.9688 18.1875C54.6042 18.1875 55.1458 18.4115 55.5938 18.8594C56.0417 19.2969 56.2656 19.8333 56.2656 20.4688C56.2656 21.1042 56.0417 21.6458 55.5938 22.0938C55.1562 22.5417 54.6198 22.7656 53.9844 22.7656C53.349 22.7656 52.8073 22.5417 52.3594 22.0938C51.9115 21.6458 51.6875 21.099 51.6875 20.4531ZM60.1875 26.7812H63.7188V28.1875C64.9479 26.9688 66.3333 26.3594 67.875 26.3594C69.6458 26.3594 71.026 26.9167 72.0156 28.0312C72.8698 28.9792 73.2969 30.526 73.2969 32.6719V42H69.7656V33.5C69.7656 32 69.5573 30.9635 69.1406 30.3906C68.7344 29.8073 67.9948 29.5156 66.9219 29.5156C65.7552 29.5156 64.9271 29.901 64.4375 30.6719C63.9583 31.4323 63.7188 32.7604 63.7188 34.6562V42H60.1875V26.7812ZM110.031 22.7656H106.516V21.3438C106.516 20.5729 106.266 19.8958 105.766 19.3125C105.234 18.7188 104.583 18.4219 103.812 18.4219C103.052 18.4219 102.411 18.7135 101.891 19.2969C101.38 19.8698 101.125 20.5521 101.125 21.3438V26.7812H105.156V30.0625H101.125V42H97.6094V30.0625H96.3594V26.7812H97.6094V21.3438C97.6094 19.6354 98.2135 18.1771 99.4219 16.9688C100.641 15.75 102.109 15.1406 103.828 15.1406C105.536 15.1406 106.995 15.75 108.203 16.9688C109.422 18.1771 110.031 19.6354 110.031 21.3438V22.7656ZM110.031 42H106.516V26.7812H110.031V42ZM114.5 26.7812H118.031V28.1875C119.26 26.9688 120.646 26.3594 122.188 26.3594C123.958 26.3594 125.339 26.9167 126.328 28.0312C127.182 28.9792 127.609 30.526 127.609 32.6719V42H124.078V33.5C124.078 32 123.87 30.9635 123.453 30.3906C123.047 29.8073 122.307 29.5156 121.234 29.5156C120.068 29.5156 119.24 29.901 118.75 30.6719C118.271 31.4323 118.031 32.7604 118.031 34.6562V42H114.5V26.7812Z" fill="black"/>
<path d="M83.5469 38.5781H92.5312V42H76.3281L84.7031 31.8594C85.526 30.849 86.2135 29.974 86.7656 29.2344C87.3281 28.4948 87.7552 27.875 88.0469 27.375C88.6406 26.3958 88.9375 25.5156 88.9375 24.7344C88.9375 23.6094 88.5417 22.6667 87.75 21.9062C86.9583 21.1458 85.9792 20.7656 84.8125 20.7656C82.375 20.7656 80.9792 22.2083 80.625 25.0938H77C77.5833 20.0104 80.151 17.4688 84.7031 17.4688C86.901 17.4688 88.7448 18.1667 90.2344 19.5625C91.7344 20.9583 92.4844 22.6875 92.4844 24.75C92.4844 26.0625 92.1354 27.349 91.4375 28.6094C91.0833 29.2656 90.5625 30.0469 89.875 30.9531C89.1979 31.849 88.3385 32.9115 87.2969 34.1406L83.5469 38.5781Z" fill="url(#paint6_linear_350_1603)"/>
<defs>
<linearGradient id="paint0_linear_350_1603" x1="21.3869" y1="16.1836" x2="21.3869" y2="36.305" gradientUnits="userSpaceOnUse">
<stop stop-color="#01DCFA"/>
<stop offset="1" stop-color="#0590FB"/>
</linearGradient>
<linearGradient id="paint1_linear_350_1603" x1="16.0876" y1="38.7255" x2="33.4789" y2="28.6846" gradientUnits="userSpaceOnUse">
<stop stop-color="#01DCFA"/>
<stop offset="1" stop-color="#0590FB"/>
</linearGradient>
<linearGradient id="paint2_linear_350_1603" x1="38.3727" y1="31.8944" x2="20.6633" y2="22.3422" gradientUnits="userSpaceOnUse">
<stop stop-color="#01DCFA"/>
<stop offset="1" stop-color="#0590FB"/>
</linearGradient>
<linearGradient id="paint3_linear_350_1603" x1="21.3506" y1="10.3047" x2="21.3506" y2="14.3047" gradientUnits="userSpaceOnUse">
<stop stop-color="#01DCFA"/>
<stop offset="1" stop-color="#0590FB"/>
</linearGradient>
<linearGradient id="paint4_linear_350_1603" x1="42.3506" y1="31.3047" x2="42.3506" y2="35.3047" gradientUnits="userSpaceOnUse">
<stop stop-color="#01DCFA"/>
<stop offset="1" stop-color="#0590FB"/>
</linearGradient>
<linearGradient id="paint5_linear_350_1603" x1="12.3506" y1="39.3047" x2="12.3506" y2="43.3047" gradientUnits="userSpaceOnUse">
<stop stop-color="#01DCFA"/>
<stop offset="1" stop-color="#0590FB"/>
</linearGradient>
<linearGradient id="paint6_linear_350_1603" x1="87.3554" y1="8" x2="87.3554" y2="51" gradientUnits="userSpaceOnUse">
<stop stop-color="#01DCFA"/>
<stop offset="1" stop-color="#0590FB"/>
</linearGradient>
</defs>
</svg>
